# xmcd
#
# Track frame offsets:
#  150
#  16964
#  30593
#  42928
#  48288
#  59184
#  71593
#  79182
#  93819
#  107554
#  120363
#  131988
#  138630
#  155219
#  164498
#  174597
#  190457
#
# Disc length: 2687 seconds
#
# Revision: 0
# Processed by: cddbd v1.5.1PL0 Copyright (c) Steve Scherf et al.
# Submitted via: AltoMP3_Maker 3.0
#
DISCID=f20a7d11
DTITLE=Jim Tolles and Magic Truck - Hard For To Love
DYEAR=1900
DGENRE=
TTITLE0=Hard for to Love
TTITLE1=Weeping Willow Tree
TTITLE2=Jump in the Skillet
TTITLE3=Farewell
TTITLE4=Rachel's Song
TTITLE5=Down the Hill
TTITLE6=The Rocks and the Rills
TTITLE7=East Virginia
TTITLE8=Billy in the Low Ground/Societal Breakdown
TTITLE9=Raleigh and Spencer
TTITLE10=Wagonload of Blues
TTITLE11=A Troupe of Monkeys
TTITLE12=Oh Father
TTITLE13=The Cuckoo
TTITLE14=Dance, Children, Dance!
TTITLE15=The Lady of Carlisle
TTITLE16=Paul and Silas
EXTD=
EXTT0=
EXTT1=
EXTT2=
EXTT3=
EXTT4=
EXTT5=
EXTT6=
EXTT7=
EXTT8=
EXTT9=
EXTT10=
EXTT11=
EXTT12=
EXTT13=
EXTT14=
EXTT15=
EXTT16=
PLAYORDER=
